<!--?xml version="1.0" standalone="no"?-->

<svg version="1.0" xmlns="http://www.w3.org/2000/svg" width="300.000000pt" height="300.000000pt" viewBox="0 0 300.000000 300.000000" preserveAspectRatio="xMidYMid meet">
<g transform="translate(0.000000,300.000000) scale(0.100000,-0.100000)" fill="#111111" stroke="none">
<path d="M1985 2641 c-84 -12 -164 -42 -295 -110 -69 -36 -152 -78 -185 -94
l-59 -29 -16 23 c-8 13 -34 47 -57 75 -24 29 -43 56 -43 61 0 14 -50 39 -109
57 -36 11 -93 16 -170 16 -102 0 -127 -4 -216 -32 -105 -33 -132 -50 -236
-150 -94 -90 -146 -234 -105 -293 7 -12 16 -62 19 -117 l6 -98 -32 0 c-51 0
-153 -28 -210 -56 -73 -37 -142 -95 -194 -162 -44 -56 -45 -58 -41 -122 4 -76
37 -154 92 -219 20 -24 43 -52 49 -61 7 -10 22 -20 35 -24 19 -6 22 -4 22 21
0 15 11 51 24 78 40 87 167 183 202 154 10 -8 11 -15 4 -24 -8 -9 0 -14 30
-18 23 -3 61 -20 90 -41 38 -27 60 -36 91 -36 27 0 38 -4 33 -11 -3 -6 -1 -14
5 -18 19 -12 1 -39 -34 -51 -28 -9 -45 -7 -108 14 -40 15 -81 26 -89 26 -29 0
-76 -66 -89 -124 -7 -32 -24 -69 -40 -88 l-27 -33 -11 29 c-34 88 -3 204 75
283 56 55 59 69 7 31 -96 -72 -136 -190 -109 -324 l8 -42 -90 -99 c-58 -63
-105 -106 -131 -118 -41 -18 -54 -35 -27 -35 8 0 24 -9 37 -19 21 -17 22 -22
11 -41 -11 -17 -10 -23 3 -37 15 -14 14 -17 -4 -37 -25 -26 -26 -36 -6 -36 24
0 29 -29 10 -50 -10 -11 -16 -21 -14 -23 2 -1 22 -11 44 -21 53 -25 249 -33
411 -16 66 6 175 18 244 24 100 10 118 14 89 20 -19 4 -80 2 -135 -4 -210 -24
-284 -28 -433 -25 -116 2 -157 7 -168 17 -12 13 -12 17 3 29 13 10 68 13 258
14 263 1 516 14 494 25 -33 18 -132 20 -254 5 -139 -17 -405 -21 -468 -6 -46
11 -59 22 -50 44 7 19 37 22 80 7 50 -16 222 -18 416 -4 204 15 331 8 388 -21
17 -9 39 -14 48 -12 11 3 0 12 -33 28 -56 26 -109 28 -580 19 -236 -5 -315 4
-315 34 0 31 24 35 125 21 127 -18 216 -18 385 0 175 19 291 19 365 0 62 -16
143 -54 184 -86 31 -25 34 -24 73 12 18 17 58 43 88 58 49 23 69 26 184 29
109 3 136 1 185 -17 85 -31 173 -49 317 -66 126 -15 134 -15 224 5 74 16 96
17 102 7 5 -8 8 -4 8 11 0 12 15 53 34 90 18 37 36 83 40 102 l6 35 -20 -33
c-11 -18 -33 -61 -49 -97 -26 -56 -34 -65 -68 -76 -21 -6 -87 -14 -148 -16
-117 -5 -167 4 -440 77 -149 39 -259 41 -336 5 -30 -14 -69 -35 -88 -47 l-34
-22 7 30 c4 16 24 58 45 94 47 79 121 224 121 234 0 17 -32 -18 -49 -53 -9
-20 -43 -82 -75 -138 -31 -57 -66 -123 -77 -148 -20 -45 -32 -54 -45 -34 -17
28 -138 69 -247 84 -61 8 -125 18 -140 20 -16 3 -76 -3 -135 -12 -137 -21
-469 -24 -524 -5 -34 12 -37 16 -27 35 6 12 43 54 83 93 128 127 209 218 252
285 62 95 65 97 124 69 35 -17 59 -21 85 -17 50 8 105 51 105 82 0 29 -19 41
-85 50 -58 9 -85 21 -85 38 0 7 11 33 25 59 14 26 25 54 25 62 0 8 4 17 8 20
19 11 135 -36 183 -74 29 -22 90 -60 138 -83 l86 -42 135 0 135 0 46 32 c47
32 83 79 129 166 14 26 32 47 40 47 25 0 85 -19 104 -33 17 -13 16 -16 -14
-68 -17 -30 -35 -61 -39 -69 -4 -8 -35 -31 -68 -50 -108 -62 -177 -111 -229
-164 -68 -68 -114 -141 -114 -183 0 -31 2 -33 33 -33 27 0 48 14 120 80 86 79
107 92 107 68 0 -7 10 -25 23 -40 19 -23 33 -28 112 -37 50 -6 102 -13 118
-17 23 -5 33 0 67 34 22 22 40 49 40 61 0 13 14 29 39 45 126 80 104 194 -51
267 -38 18 -45 25 -37 36 39 46 203 -36 248 -124 6 -12 11 -35 11 -52 0 -17 3
-31 7 -31 3 0 31 19 60 42 66 50 131 131 199 247 l50 86 70 -2 c101 -4 255 15
335 41 38 12 71 21 73 18 3 -2 1 -12 -4 -21 -6 -9 -32 -64 -59 -122 -26 -58
-53 -109 -60 -113 -6 -4 -11 -14 -11 -23 0 -9 -11 -39 -24 -67 -13 -28 -36
-80 -52 -116 -16 -36 -54 -115 -85 -176 -48 -96 -82 -181 -66 -164 10 9 145
285 172 349 14 35 35 80 46 100 10 19 19 40 19 45 0 4 15 34 34 65 18 31 41
80 52 109 30 87 39 71 49 -93 6 -92 12 -120 46 -201 13 -33 12 -38 -82 -210
-80 -149 -150 -287 -178 -354 -50 -116 -72 -162 -98 -196 -13 -17 -30 -52 -39
-77 -16 -47 -38 -75 -47 -60 -3 5 7 35 22 68 41 88 47 119 10 53 -18 -32 -36
-58 -41 -58 -11 0 -1 59 13 75 4 6 62 118 128 250 116 229 149 307 96 220 -34
-55 -225 -441 -225 -454 0 -6 -4 -11 -10 -11 -33 0 29 152 160 390 16 30 30
64 30 75 -1 28 -63 -84 -140 -250 -20 -44 -44 -96 -52 -115 l-16 -35 -11 29
c-19 47 -23 24 -12 -60 6 -44 13 -117 17 -163 l7 -83 -64 7 c-35 4 -77 9 -94
11 -16 2 -88 8 -159 15 -71 6 -152 15 -180 20 -154 27 -442 59 -526 59 -13 0
-27 -14 -39 -38 -10 -20 -28 -45 -39 -55 -23 -21 -80 -32 -116 -23 -40 10 -85
54 -97 97 l-12 39 -86 0 c-84 0 -297 -20 -436 -39 -38 -6 -113 -11 -165 -11
-52 -1 -127 -4 -167 -8 -80 -8 -93 -6 -93 13 0 17 31 35 59 35 12 0 21 4 21 9
0 5 -12 8 -27 6 -37 -4 -53 4 -53 26 0 10 -2 19 -5 19 -10 0 -40 -34 -59 -65
-10 -16 -29 -41 -41 -55 -28 -31 -19 -66 20 -76 13 -3 94 -1 177 6 84 7 178
14 208 16 30 1 77 7 103 12 27 5 63 6 82 2 18 -4 39 -4 46 1 8 5 30 9 49 9 20
0 41 5 47 11 8 8 17 8 31 0 14 -7 22 -7 24 -1 2 6 32 12 66 15 35 2 91 6 125
10 61 6 62 5 82 -26 22 -34 82 -72 129 -81 33 -7 89 14 129 48 46 39 95 49
179 35 40 -6 134 -18 208 -26 327 -35 418 -46 470 -54 30 -6 101 -15 158 -22
147 -16 161 -8 226 141 16 36 46 100 67 142 22 43 39 84 39 92 0 7 7 19 15 26
8 7 15 20 15 29 0 9 18 44 40 79 22 34 43 75 46 90 4 15 19 45 34 67 15 22 30
54 34 70 4 17 27 64 50 105 24 41 52 99 62 128 18 53 18 54 -1 68 -10 8 -35
14 -55 14 -23 0 -43 7 -53 18 -28 31 -50 369 -27 413 15 26 0 25 -58 -6 -83
-44 -90 -38 -102 98 -5 48 -13 93 -18 100 -6 7 -10 23 -10 37 1 38 -65 209
-118 307 -60 110 -146 199 -236 242 -55 26 -78 31 -168 35 -58 2 -127 1 -155
-3z m-855 -42 c57 -7 101 -19 135 -37 44 -24 58 -40 118 -140 63 -103 68 -116
58 -140 -7 -15 -27 -37 -45 -49 -25 -16 -33 -27 -29 -42 6 -23 -131 -231 -152
-231 -7 0 -18 7 -26 16 -18 22 -104 64 -130 64 -33 0 -95 -39 -110 -69 -7 -14
-15 -46 -18 -70 -7 -53 -39 -73 -68 -42 -58 60 -187 81 -242 40 -16 -12 -34
-18 -39 -15 -13 8 -42 105 -42 139 0 32 9 57 22 57 5 0 26 -13 46 -29 37 -29
82 -46 82 -31 0 4 -12 16 -27 25 -16 10 -54 41 -87 68 l-58 51 6 49 c9 63 35
114 104 202 135 173 251 216 502 184z m477 -263 c26 -23 28 -30 28 -99 0 -40
-5 -80 -11 -88 -6 -8 -17 -30 -23 -49 -21 -63 -91 -122 -133 -113 -22 5 -24
-13 -2 -25 55 -31 41 -280 -22 -387 -37 -64 -66 -85 -146 -107 -85 -22 -159
-18 -243 13 -78 29 -82 37 -40 99 33 49 46 100 26 100 -5 0 -18 -22 -29 -48
-23 -53 -45 -77 -61 -67 -15 9 -31 73 -31 123 0 24 -5 52 -11 63 -5 11 -7 29
-4 39 6 18 9 19 33 6 15 -8 41 -29 57 -46 39 -42 88 -63 129 -54 87 19 121 64
117 159 -2 51 2 65 24 95 14 19 40 60 56 92 17 31 48 70 70 88 31 24 39 38 39
63 1 72 72 167 125 167 13 0 37 -11 52 -24z m-467 -381 c38 -37 60 -84 60
-132 0 -47 -7 -59 -43 -72 -94 -36 -187 35 -187 142 0 38 5 53 26 74 22 22 32
25 71 20 30 -3 54 -13 73 -32z m-345 -101 c14 -9 37 -36 51 -60 24 -40 24 -44
10 -78 -20 -47 -56 -62 -114 -47 -59 15 -88 38 -107 84 -21 52 -19 70 11 102
23 25 30 27 74 22 27 -3 61 -14 75 -23z m115 -240 c0 -30 -3 -54 -8 -54 -4 0
-24 12 -45 26 l-38 25 33 38 c42 48 58 38 58 -35z m870 21 c-31 -50 -131 -127
-146 -112 -8 7 48 101 74 126 27 25 84 44 90 29 2 -4 -6 -24 -18 -43z m36
-125 c61 -35 104 -82 104 -116 0 -33 -30 -62 -118 -113 -40 -23 -72 -46 -72
-52 0 -5 11 -2 25 7 22 14 25 14 31 1 14 -38 -55 -94 -102 -83 -14 4 -30 17
-36 31 -9 20 -6 33 16 75 31 59 30 71 -4 35 -15 -16 -24 -41 -28 -75 -5 -54
-20 -64 -54 -33 -24 21 -23 60 2 101 27 43 25 50 -5 22 -17 -16 -27 -39 -31
-72 -4 -27 -10 -50 -14 -53 -4 -2 -17 5 -30 17 -29 27 -23 84 15 133 14 19 21
35 16 35 -6 0 -18 -12 -28 -27 -26 -40 -161 -169 -212 -203 -53 -36 -77 -39
-38 -5 24 21 26 27 16 49 -10 21 -7 29 17 61 35 46 144 127 264 197 50 29 108
63 128 75 49 30 77 29 138 -7z m-1326 -147 c0 -15 -53 -82 -61 -77 -14 9 -11
21 17 53 24 29 44 40 44 24z m760 -208 c-9 -11 -16 -13 -23 -6 -7 7 -6 15 3
26 9 11 16 13 23 6 7 -7 6 -15 -3 -26z" id="node1" class="node"></path>
<path d="M937 2540 c-70 -61 -128 -216 -112 -296 l8 -39 8 60 c10 70 90 238
125 261 12 9 25 22 28 30 9 24 -21 16 -57 -16z" id="node2" class="node"></path>
<path d="M976 2506 c-43 -45 -88 -125 -101 -181 -8 -37 -8 -150 1 -177 11 -35
22 0 13 40 -14 64 7 133 77 254 25 42 51 79 59 82 8 3 15 10 15 16 0 21 -22 9
-64 -34z" id="node3" class="node"></path>
<path d="M1238 2400 c-1 -5 -28 -35 -59 -67 -46 -48 -99 -122 -99 -138 0 -13
33 12 45 34 7 14 39 53 69 86 68 73 83 95 62 95 -8 0 -16 -4 -18 -10z" id="node4" class="node"></path>
<path d="M1254 2334 c-38 -40 -84 -110 -84 -129 0 -17 23 0 34 25 7 17 36 54
64 84 29 30 52 57 52 60 0 17 -25 1 -66 -40z" id="node5" class="node"></path>
<path d="M1310 2315 c-19 -14 -43 -40 -54 -58 -16 -26 -9 -21 37 23 31 30 57
56 57 57 0 6 -8 2 -40 -22z" id="node6" class="node"></path>
<path d="M1359 2295 c-39 -25 -93 -84 -85 -93 3 -3 29 17 58 43 29 27 57 52
62 56 22 19 -2 15 -35 -6z" id="node7" class="node"></path>
<path d="M710 2227 c0 -17 61 -96 109 -141 45 -43 38 -23 -18 53 -61 82 -91
111 -91 88z" id="node8" class="node"></path>
<path d="M682 2148 c55 -64 115 -114 125 -104 8 8 -143 156 -159 156 -6 0 10
-24 34 -52z" id="node9" class="node"></path>
<path d="M609 2153 c12 -23 67 -74 104 -97 50 -31 19 8 -51 64 -35 28 -59 43
-53 33z" id="node10" class="node"></path>
<path d="M1506 2290 c-20 -22 -36 -43 -36 -48 -1 -4 -5 -26 -9 -49 -11 -57 8
-77 42 -44 27 24 57 28 57 7 0 -8 -15 -29 -32 -45 -24 -22 -39 -29 -55 -25
-29 8 -30 -11 -2 -27 28 -14 67 12 92 64 31 61 1 100 -49 62 -26 -20 -34 -19
-34 5 0 28 23 70 54 99 14 14 26 28 26 33 0 18 -19 6 -54 -32z" id="node11" class="node"></path>
<path d="M1157 1553 c-12 -11 -8 -23 7 -23 7 0 19 7 26 15 10 12 9 15 -7 15
-11 0 -23 -3 -26 -7z" id="node12" class="node"></path>
<path d="M1040 1805 c0 -8 2 -15 4 -15 2 0 11 -3 20 -6 10 -4 16 -1 16 9 0 8
-7 18 -16 21 -22 9 -24 8 -24 -9z" id="node13" class="node"></path>
<path d="M780 1745 c0 -16 27 -32 37 -21 7 7 -16 36 -28 36 -5 0 -9 -7 -9 -15z" id="node14" class="node"></path>
<path d="M2683 1388 c-35 -67 -75 -168 -66 -168 2 0 11 16 19 36 8 20 29 63
45 97 61 124 63 150 2 35z" id="node15" class="node"></path>
<path d="M670 1400 c-8 -5 -10 -10 -5 -10 6 0 17 5 25 10 8 5 11 10 5 10 -5 0
-17 -5 -25 -10z" id="node16" class="node"></path>
<path d="M2657 1215 c-24 -50 -20 -58 4 -12 11 22 19 41 17 43 -3 2 -12 -12
-21 -31z" id="node17" class="node"></path>
<path d="M2548 1097 c-31 -61 -68 -134 -82 -162 -14 -27 -28 -63 -31 -80 -6
-29 78 130 144 273 52 115 31 94 -31 -31z" id="node18" class="node"></path>
<path d="M2687 1153 c-4 -3 -7 -11 -7 -17 0 -6 5 -5 12 2 6 6 9 14 7 17 -3 3
-9 2 -12 -2z" id="node19" class="node"></path>
<path d="M2657 1009 c-9 -17 -17 -36 -17 -42 0 -7 9 6 21 27 24 45 21 58 -4
15z" id="node20" class="node"></path>
<path d="M2594 857 c-11 -23 -39 -78 -63 -122 -24 -44 -39 -75 -33 -70 22 20
128 223 120 230 -2 2 -12 -15 -24 -38z" id="node21" class="node"></path>
<path d="M1407 735 c-21 -7 -42 -17 -45 -21 -4 -4 0 -5 8 -2 8 3 45 11 82 18
74 15 138 8 323 -31 113 -25 284 -36 311 -21 16 9 11 11 -26 10 -48 -2 -129 8
-330 41 -144 24 -268 26 -323 6z" id="node22" class="node"></path>
<path d="M928 683 c6 -2 18 -2 25 0 6 3 1 5 -13 5 -14 0 -19 -2 -12 -5z" id="node23" class="node"></path>
<path d="M1411 640 c-73 -16 -74 -34 -1 -20 61 12 161 12 240 -1 114 -18 195
-28 198 -25 2 2 -32 13 -76 25 -89 24 -291 36 -361 21z" id="node24" class="node"></path>
</g>
<g transform="translate(0.000000,300.000000) scale(0.100000,-0.100000)" fill="#E3C5C7" stroke="none">

<path d="M891 2599 c-102 -20 -175 -71 -263 -184 -69 -88 -95 -139 -104 -202
l-6 -49 58 -51 c33 -27 71 -58 87 -68 15 -9 27 -21 27 -25 0 -15 -45 2 -82 31
-20 16 -41 29 -46 29 -13 0 -22 -25 -22 -57 0 -34 29 -131 42 -139 5 -3 23 3
39 15 55 41 184 20 242 -40 29 -31 61 -11 68 42 3 24 11 56 18 70 15 30 77 69
110 69 26 0 112 -42 130 -64 8 -9 19 -16 26 -16 21 0 158 208 152 231 -4 15 4
26 29 42 18 12 38 34 45 49 10 24 5 37 -58 140 -60 100 -74 116 -118 140 -77
41 -261 59 -374 37z m103 -43 c-3 -8 -16 -21 -28 -30 -35 -23 -115 -191 -125
-261 l-8 -60 -8 39 c-16 80 42 235 112 296 36 32 66 40 57 16z m46 -16 c0 -6
-7 -13 -15 -16 -8 -3 -34 -40 -59 -82 -70 -121 -91 -190 -77 -254 9 -40 -2
-75 -13 -40 -9 27 -9 140 -1 177 13 56 58 136 101 181 42 43 64 55 64 34z
m221 -147 c-6 -10 -36 -45 -67 -78 -30 -33 -62 -72 -69 -86 -12 -22 -45 -47
-45 -34 0 16 53 90 99 138 31 32 58 62 59 67 2 6 10 10 18 10 11 0 12 -4 5
-17z m59 -19 c0 -3 -23 -30 -52 -60 -28 -30 -57 -67 -64 -84 -7 -16 -18 -30
-24 -30 -14 0 -13 5 9 49 31 60 131 156 131 125z m30 -37 c0 -1 -26 -27 -57
-57 -46 -44 -53 -49 -37 -23 20 33 94 96 94 80z m44 -36 c-5 -4 -33 -29 -62
-56 -58 -53 -78 -56 -36 -5 28 32 95 81 103 74 3 -3 0 -8 -5 -13z m-593 -162
c56 -76 63 -96 18 -53 -48 45 -109 124 -109 141 0 23 30 -6 91 -88z m-65 -13
c78 -74 97 -116 28 -60 -46 37 -130 134 -116 134 5 0 45 -34 88 -74z m-3 -72
c8 -13 4 -13 -20 2 -37 23 -92 74 -104 97 -6 10 18 -5 53 -33 34 -28 66 -57
71 -66z" id="node26" class="node"></path>
<path d="M1499 2333 c-37 -32 -68 -95 -69 -140 0 -25 -8 -39 -39 -63 -22 -18
-53 -57 -70 -88 -16 -32 -42 -73 -56 -92 -22 -30 -26 -44 -24 -95 4 -95 -30
-140 -117 -159 -41 -9 -90 12 -129 54 -16 17 -42 38 -57 46 -24 13 -27 12 -33
-6 -3 -10 -1 -28 4 -39 6 -11 11 -39 11 -63 0 -50 16 -114 31 -123 16 -10 38
14 61 67 11 26 24 48 29 48 20 0 7 -51 -26 -100 -42 -62 -38 -70 40 -99 84
-31 158 -35 243 -13 80 22 109 43 146 107 63 107 77 356 22 387 -22 12 -20 30
2 25 42 -9 112 50 133 113 6 19 17 41 23 49 6 8 11 48 11 88 0 69 -2 76 -28
99 -37 31 -68 30 -108 -3z m61 -11 c0 -5 -12 -19 -26 -33 -31 -29 -54 -71 -54
-99 0 -24 8 -25 34 -5 50 38 80 -1 49 -62 -25 -52 -64 -78 -92 -64 -28 16 -27
35 2 27 16 -4 31 3 55 25 17 16 32 37 32 45 0 21 -30 17 -57 -7 -34 -33 -53
-13 -42 44 4 23 8 45 9 49 0 5 16 26 36 48 35 38 54 50 54 32z m-370 -777
c-13 -16 -40 -20 -40 -7 0 14 12 22 33 22 16 0 17 -3 7 -15z" id="node27" class="node"></path>
<path d="M996 1967 c-21 -21 -26 -36 -26 -74 0 -107 93 -178 187 -142 36 13
43 25 43 72 0 82 -60 156 -133 164 -39 5 -49 2 -71 -20z m68 -153 c9 -3 16
-13 16 -21 0 -10 -6 -13 -16 -9 -9 3 -18 6 -20 6 -2 0 -4 7 -4 15 0 17 2 18
24 9z" id="node28" class="node"></path>
<path d="M646 1855 c-30 -32 -32 -50 -11 -102 19 -46 48 -69 107 -84 58 -15
94 0 114 47 14 34 14 38 -10 78 -32 54 -64 76 -126 83 -44 5 -51 3 -74 -22z
m164 -110 c7 -9 10 -18 7 -21 -10 -11 -37 5 -37 21 0 19 14 19 30 0z" id="node29" class="node"></path>
<path d="M852 1649 l-33 -38 38 -25 c21 -14 41 -26 45 -26 13 0 9 107 -4 117
-9 7 -23 -1 -46 -28z" id="node30" class="node"></path>

<path d="M1678 1517 c-20 -12 -78 -46 -128 -75 -120 -70 -229 -151 -264 -197
-24 -32 -27 -40 -17 -61 10 -22 8 -28 -16 -49 -39 -34 -15 -31 38 5 51 34 186
163 212 203 10 15 22 27 28 27 5 0 -2 -16 -16 -35 -38 -49 -44 -106 -15 -133
13 -12 26 -19 30 -17 4 3 10 26 14 53 4 33 14 56 31 72 30 28 32 21 5 -22 -25
-41 -26 -80 -2 -101 34 -31 49 -21 54 33 4 34 13 59 28 75 34 36 35 24 4 -35
-22 -42 -25 -55 -16 -75 6 -14 22 -27 36 -31 47 -11 116 45 102 83 -6 13 -9
13 -31 -1 -14 -9 -25 -12 -25 -7 0 6 32 29 72 52 124 72 143 108 92 169 -33
39 -120 90 -154 90 -14 0 -42 -10 -62 -23z" id="node32" class="node"></path>
<path d="M446 1339 c-28 -32 -31 -44 -17 -53 8 -5 61 62 61 77 0 16 -20 5 -44
-24z" id="node33" class="node"></path>

<path d="M1230 1175 c-9 -11 -10 -19 -3 -26 7 -7 14 -5 23 6 9 11 10 19 3 26
-7 7 -14 5 -23 -6z" id="node35" class="node"></path>
</g>
</svg>